<?xml version="1.0" encoding="UTF-8" standalone="no"?>
<!-- Created with Inkscape (http://www.inkscape.org/) -->

<svg
   xmlns:dc="http://purl.org/dc/elements/1.1/"
   xmlns:cc="http://creativecommons.org/ns#"
   xmlns:rdf="http://www.w3.org/1999/02/22-rdf-syntax-ns#"
   xmlns:svg="http://www.w3.org/2000/svg"
   xmlns="http://www.w3.org/2000/svg"
   xmlns:sodipodi="http://sodipodi.sourceforge.net/DTD/sodipodi-0.dtd"
   xmlns:inkscape="http://www.inkscape.org/namespaces/inkscape"
   width="700mm"
   height="700mm"
   viewBox="0 0 700 700"
   version="1.1"
   id="svg8"
   inkscape:version="0.92.4 (5da689c313, 2019-01-14)"
   sodipodi:docname="Marcel Bilski B.svg">
  <defs
     id="defs2" />
  <sodipodi:namedview
     id="base"
     pagecolor="#ffffff"
     bordercolor="#666666"
     borderopacity="1.0"
     inkscape:pageopacity="0.0"
     inkscape:pageshadow="2"
     inkscape:zoom="0.25"
     inkscape:cx="1692.5773"
     inkscape:cy="1285.5122"
     inkscape:document-units="mm"
     inkscape:current-layer="layer1"
     showgrid="false"
     inkscape:snap-global="false"
     inkscape:window-width="1920"
     inkscape:window-height="1000"
     inkscape:window-x="-11"
     inkscape:window-y="-11"
     inkscape:window-maximized="1" />
  <metadata
     id="metadata5">
    <rdf:RDF>
      <cc:Work
         rdf:about="">
        <dc:format>image/svg+xml</dc:format>
        <dc:type
           rdf:resource="http://purl.org/dc/dcmitype/StillImage" />
        <dc:title></dc:title>
      </cc:Work>
    </rdf:RDF>
  </metadata>
  <g
     inkscape:label="Layer 1"
     inkscape:groupmode="layer"
     id="layer1"
     transform="translate(0,403)">
    <g
       id="g4703"
       transform="translate(9.525,25.4)">
      <path
         id="path4518"
         transform="matrix(0.26458333,0,0,0.26458333,0,-403)"
         d="M 1282.8828,277.90625 A 944.88188,944.88188 0 0 0 338,1222.7871 a 944.88188,944.88188 0 0 0 944.8828,944.8828 944.88188,944.88188 0 0 0 944.8809,-944.8828 944.88188,944.88188 0 0 0 -102.4766,-425.68944 126.61524,126.61524 0 0 1 -110.5,-24.12696 126.61524,126.61524 0 0 1 -46.3437,-112.09179 216.81825,216.81825 0 0 1 -253.0684,-13.70313 216.81825,216.81825 0 0 1 -63.9941,-251.58984 126.61524,126.61524 0 0 1 -127.2461,-18.73242 126.61524,126.61524 0 0 1 -45.1153,-77.22266 944.88188,944.88188 0 0 0 -196.1367,-21.72461 z m 0,614.17187 a 330.70866,330.70866 0 0 1 330.707,330.70898 330.70866,330.70866 0 0 1 -330.707,330.709 330.70866,330.70866 0 0 1 -330.70897,-330.709 330.70866,330.70866 0 0 1 330.70897,-330.70898 z"
         style="opacity:1;fill:#deaa87;fill-opacity:1;stroke:none;stroke-width:4.0037365;stroke-miterlimit:4;stroke-dasharray:none;stroke-opacity:1"
         inkscape:connector-curvature="0" />
      <path
         id="path4536"
         transform="matrix(0.26458333,0,0,0.26458333,0,-403)"
         d="m 1279.0156,253.59961 c -4.4982,3.4e-4 -8.9962,0.0312 -13.4941,0.0937 C 983.6101,258.32987 706.76798,392.36115 530.14453,612.49023 391.32331,783.1021 314.5871,1002.1622 313.69336,1221.6699 c 0.43,86.6946 32.33686,182.6682 105.08398,183.5606 130.54905,1.6015 35.76851,-310.1141 229.16016,-307.7051 167.01844,2.0805 132.55702,284.6992 227.9707,284.6992 79.53135,0 102.67087,-94.3096 101.51368,-160.5547 -0.0154,-66.6032 20.78882,-133.0328 62.90822,-185.2461 57.8417,-74.46389 150.5632,-121.10682 243.9414,-119.66599 150.6886,-2.09975 289.8129,122.95919 303.123,273.31449 1.1591,10.5124 1.7141,21.0603 1.6953,31.5976 -12.3744,95.1956 16.324,225.3926 96.7637,225.3926 206.8931,0 61.9623,-378.0391 215.8848,-378.0391 179.3664,0 55.3121,400.4414 239.3086,400.4414 88.6153,0 110.4629,-132.685 110.4629,-247.7949 -0.3487,-146.7063 -33.4934,-293.36562 -98.2461,-425.13474 a 126.61523,140.14665 38.915069 0 1 -161.5332,4.99414 126.61523,140.14665 38.915069 0 1 -42.4434,-116.92383 216.81825,239.98969 38.915069 0 1 -263.0234,-1.37109 216.81825,239.98969 38.915069 0 1 -53.5508,-264.5254 126.61523,140.14665 38.915069 0 1 -131.6328,-13.29882 126.61523,140.14665 38.915069 0 1 -38.4453,-134.51758 c -60.4914,-11.46591 -122.049,-17.29761 -183.6192,-17.29297 z"
         style="opacity:1;fill:#2d2222;fill-opacity:1;stroke:#6c5353;stroke-width:70;stroke-linecap:round;stroke-linejoin:round;stroke-miterlimit:4;stroke-dasharray:none;stroke-opacity:1"
         inkscape:connector-curvature="0" />
      <path
         transform="matrix(0.26458333,0,0,0.26458333,0,-403)"
         id="path4523"
         d="m 1279.0156,253.59961 c -4.4982,3.4e-4 -8.9962,0.0312 -13.4941,0.0937 C 983.6101,258.32987 706.76798,392.36115 530.14453,612.49023 391.32331,783.1021 314.5871,1002.1622 313.69336,1221.6699 c 0.43,86.6946 32.33686,182.6682 105.08398,183.5606 130.54905,1.6015 35.76851,-310.1141 229.16016,-307.7051 167.01844,2.0805 132.55702,284.6992 227.9707,284.6992 79.53135,0 102.67087,-94.3096 101.51368,-160.5547 -0.0154,-66.6032 20.78882,-133.0328 62.90822,-185.2461 57.8417,-74.46389 150.5632,-121.10682 243.9414,-119.66599 150.6886,-2.09975 289.8129,122.95919 303.123,273.31449 1.1591,10.5124 1.7141,21.0603 1.6953,31.5976 -12.3744,95.1956 16.324,225.3926 96.7637,225.3926 206.8931,0 61.9623,-378.0391 215.8848,-378.0391 179.3664,0 55.3121,400.4414 239.3086,400.4414 88.6153,0 110.4629,-132.685 110.4629,-247.7949 -0.3461,-145.6339 -33.0116,-291.22095 -96.8321,-422.24217 a 126.61523,150.29522 38.915069 0 1 -180.2382,23.51954 126.61523,150.29522 38.915069 0 1 -39.5176,-120.54688 216.81825,257.36829 38.915069 0 1 -270.4922,7.87695 216.81825,257.36829 38.915069 0 1 -45.7188,-274.22656 126.61523,150.29522 38.915069 0 1 -134.9238,-9.22266 126.61523,150.29522 38.915069 0 1 -28.0586,-157.23632 c -58.2664,-10.61556 -117.4856,-15.99665 -176.7129,-15.99219 z"
         style="opacity:1;fill:#7c5e5e;fill-opacity:1;stroke:none;stroke-width:25;stroke-miterlimit:4;stroke-dasharray:none;stroke-opacity:1"
         inkscape:connector-curvature="0" />
      <path
         sodipodi:nodetypes="scccccscccccs"
         inkscape:connector-curvature="0"
         id="path4549"
         d="m 500.92319,-110.42562 c -9.60291,1.85205 -9.32937,25.106172 -10.65607,31.045624 0.78623,1.945696 -8.67857,65.995652 -13.48637,69.3986707 C 425.69131,61.137363 412.9863,68.179116 348.61619,72.265573 283.61505,77.913607 217.82731,33.057842 200.35652,-30.00107 c -5.53851,-18.671857 -9.00258,-36.828028 -6.3952,-55.987618 -5.97848,-10.789725 -12.04672,-16.459952 -24.77292,-16.895772 -15.67527,-0.53682 -17.77811,13.31957 -23.16308,21.221272 -5.90423,63.567309 16.18395,121.558499 66.13565,162.520469 55.82996,46.083379 137.78396,58.280859 203.78755,28.684039 58.71649,-26.354726 103.20565,-82.271503 114.19509,-145.988487 -0.68894,-6.328595 -3.40767,-13.076267 -2.98177,-19.466563 -3.92308,-27.109684 -5.86744,-58.44075 -26.23865,-54.51189 z"
         style="opacity:0.306;fill:#ffffff;fill-opacity:1;stroke:none;stroke-width:1.05932176;stroke-miterlimit:4;stroke-dasharray:none;stroke-opacity:1" />
      <path
         id="path4607"
         transform="matrix(0.26458333,0,0,0.26458333,0,-403)"
         d="m 1289.4941,483.82422 c -3.3797,-0.005 -6.7592,0.0139 -10.1386,0.0586 -314.36809,-2.41323 -616.91198,223.46236 -705.26566,525.24419 -9.26936,31.1653 -16.31006,62.879 -21.19922,94.8847 58.12837,-48.9939 153.27284,-38.563 202.99805,17.1094 20.96982,-104.0626 71.82851,-202.31211 147.01367,-277.67969 89.11805,-92.5722 213.43016,-147.20058 341.03716,-156.71289 15.2752,-1.25961 30.6089,-1.82815 45.9355,-1.80079 245.9138,-1.782 471.3044,193.59302 521.0781,430.69727 3.965,-11.1042 8.801,-21.9939 14.7657,-32.6055 39.1356,-57.5898 135.1159,-48.2549 169.3476,9.8985 8.6458,12.9772 15.5212,26.5757 21.1055,40.6211 -17.4528,-135.31302 -71.7747,-265.98338 -157.0547,-372.97855 A 216.81825,281.36729 38.915069 0 1 1634.2793,747.625 216.81825,281.36729 38.915069 0 1 1571.7129,543.2793 c -67.4867,-28.53953 -139.0298,-47.37666 -211.3809,-55.62891 -23.5231,-2.5278 -47.1797,-3.78971 -70.8379,-3.82617 z"
         style="opacity:0.30899999;fill:#ffffff;fill-opacity:1;stroke:none;stroke-width:4.00373602;stroke-miterlimit:4;stroke-dasharray:none;stroke-opacity:1"
         inkscape:connector-curvature="0" />
      <rect
         style="opacity:1;fill:#00ff00;fill-opacity:1;stroke:none;stroke-width:5.71930504;stroke-linecap:round;stroke-linejoin:round;stroke-miterlimit:4;stroke-dasharray:none;stroke-opacity:1"
         id="rect4654"
         width="60.662392"
         height="14.96339"
         x="136.6163"
         y="-145.05736"
         ry="7.4816952"
         transform="rotate(-7.4630394)" />
      <rect
         style="opacity:1;fill:#ffff00;fill-opacity:1;stroke:none;stroke-width:5.36222124;stroke-linecap:round;stroke-linejoin:round;stroke-miterlimit:4;stroke-dasharray:none;stroke-opacity:1"
         id="rect4656"
         width="56.874947"
         height="14.029154"
         x="327.88174"
         y="-127.59541"
         ry="7.0145769"
         transform="rotate(-27.332022)" />
      <rect
         style="opacity:1;fill:#ffff00;fill-opacity:1;stroke:none;stroke-width:5.36222124;stroke-linecap:round;stroke-linejoin:round;stroke-miterlimit:4;stroke-dasharray:none;stroke-opacity:1"
         id="rect4658"
         width="56.874947"
         height="14.029154"
         x="399.82358"
         y="-1.1181824"
         ry="7.0145769"
         transform="rotate(-27.332022)" />
      <rect
         style="opacity:1;fill:#00ff00;fill-opacity:1;stroke:none;stroke-width:5.36222124;stroke-linecap:round;stroke-linejoin:round;stroke-miterlimit:4;stroke-dasharray:none;stroke-opacity:1"
         id="rect4660"
         width="56.874947"
         height="14.029154"
         x="25.370176"
         y="-338.74808"
         ry="7.0145769"
         transform="rotate(44.503161)" />
      <rect
         transform="rotate(34.493648)"
         ry="7.0145769"
         y="-397.02887"
         x="261.99014"
         height="14.029154"
         width="56.874947"
         id="rect4683"
         style="opacity:1;fill:#00ff00;fill-opacity:1;stroke:none;stroke-width:5.36222124;stroke-linecap:round;stroke-linejoin:round;stroke-miterlimit:4;stroke-dasharray:none;stroke-opacity:1" />
      <rect
         style="opacity:1;fill:#00ccff;fill-opacity:1;stroke:none;stroke-width:5.36222124;stroke-linecap:round;stroke-linejoin:round;stroke-miterlimit:4;stroke-dasharray:none;stroke-opacity:1"
         id="rect4662"
         width="56.874947"
         height="14.029154"
         x="-373.83701"
         y="-303.7742"
         ry="7.0145769"
         transform="rotate(128.1734)" />
      <rect
         style="opacity:1;fill:#ffff00;fill-opacity:1;stroke:none;stroke-width:5.36222124;stroke-linecap:round;stroke-linejoin:round;stroke-miterlimit:4;stroke-dasharray:none;stroke-opacity:1"
         id="rect4664"
         width="56.874947"
         height="14.029154"
         x="522.24609"
         y="154.8194"
         ry="7.0145769"
         transform="rotate(-27.332022)" />
      <rect
         style="opacity:1;fill:#00ccff;fill-opacity:1;stroke:none;stroke-width:5.36222124;stroke-linecap:round;stroke-linejoin:round;stroke-miterlimit:4;stroke-dasharray:none;stroke-opacity:1"
         id="rect4666"
         width="56.874947"
         height="14.029154"
         x="179.98862"
         y="-409.33737"
         ry="7.0145769"
         transform="rotate(26.15929)" />
      <rect
         transform="rotate(-27.332022)"
         ry="7.0145769"
         y="-116.816"
         x="233.01611"
         height="14.029154"
         width="56.874947"
         id="rect4681"
         style="opacity:1;fill:#2ad4ff;fill-opacity:1;stroke:none;stroke-width:5.36222124;stroke-linecap:round;stroke-linejoin:round;stroke-miterlimit:4;stroke-dasharray:none;stroke-opacity:1" />
      <rect
         style="opacity:1;fill:#00ccff;fill-opacity:1;stroke:none;stroke-width:4.88610935;stroke-linecap:round;stroke-linejoin:round;stroke-miterlimit:4;stroke-dasharray:none;stroke-opacity:1"
         id="rect4668"
         width="51.82502"
         height="12.783505"
         x="118.43954"
         y="19.304987"
         ry="6.3917527"
         transform="rotate(-51.958772)" />
      <rect
         style="opacity:1;fill:#ffff00;fill-opacity:1;stroke:none;stroke-width:5.36222124;stroke-linecap:round;stroke-linejoin:round;stroke-miterlimit:4;stroke-dasharray:none;stroke-opacity:1"
         id="rect4670"
         width="56.874947"
         height="14.029154"
         x="241.00188"
         y="-13.285454"
         ry="7.0145769"
         transform="rotate(-27.332022)" />
    </g>
  </g>
</svg>
