<?xml version="1.0" encoding="UTF-8" standalone="no"?>
<!-- Created with Inkscape (http://www.inkscape.org/) -->

<svg
   xmlns:dc="http://purl.org/dc/elements/1.1/"
   xmlns:cc="http://creativecommons.org/ns#"
   xmlns:rdf="http://www.w3.org/1999/02/22-rdf-syntax-ns#"
   xmlns:svg="http://www.w3.org/2000/svg"
   xmlns="http://www.w3.org/2000/svg"
   xmlns:sodipodi="http://sodipodi.sourceforge.net/DTD/sodipodi-0.dtd"
   xmlns:inkscape="http://www.inkscape.org/namespaces/inkscape"
   width="217mm"
   height="211mm"
   viewBox="0 0 217 211"
   version="1.1"
   id="svg4767"
   inkscape:version="0.92.4 (5da689c313, 2019-01-14)"
   sodipodi:docname="teams.svg"
   inkscape:export-filename="C:\Users\marce\Desktop\teams.png"
   inkscape:export-xdpi="96"
   inkscape:export-ydpi="96">
  <defs
     id="defs4761" />
  <sodipodi:namedview
     id="base"
     pagecolor="#ffffff"
     bordercolor="#666666"
     borderopacity="1.0"
     inkscape:pageopacity="0.0"
     inkscape:pageshadow="2"
     inkscape:zoom="0.7"
     inkscape:cx="-5.2571651"
     inkscape:cy="374.08565"
     inkscape:document-units="mm"
     inkscape:current-layer="layer1"
     showgrid="false"
     height="209mm"
     inkscape:pagecheckerboard="true"
     inkscape:window-width="1920"
     inkscape:window-height="1000"
     inkscape:window-x="-11"
     inkscape:window-y="-11"
     inkscape:window-maximized="1" />
  <metadata
     id="metadata4764">
    <rdf:RDF>
      <cc:Work
         rdf:about="">
        <dc:format>image/svg+xml</dc:format>
        <dc:type
           rdf:resource="http://purl.org/dc/dcmitype/StillImage" />
        <dc:title></dc:title>
      </cc:Work>
    </rdf:RDF>
  </metadata>
  <g
     inkscape:label="Layer 1"
     inkscape:groupmode="layer"
     id="layer1"
     transform="translate(0,-86)">
    <rect
       style="fill:#0000ff;fill-opacity:1;stroke:none;stroke-width:0.21256007;stroke-miterlimit:4;stroke-dasharray:none;stroke-opacity:1"
       id="rect4769"
       width="51.404766"
       height="67.126022"
       x="128.20946"
       y="170.75815"
       ry="23.247105" />
    <rect
       style="fill:#372cde;fill-opacity:1;stroke:none;stroke-width:0.21256007;stroke-miterlimit:4;stroke-dasharray:none;stroke-opacity:1"
       id="rect4771"
       width="51.087444"
       height="37.77655"
       x="128.52684"
       y="170.75815"
       ry="8.6934528" />
    <path
       style="fill:#372cde;fill-opacity:1;stroke:none;stroke-width:0.37797621;stroke-miterlimit:4;stroke-dasharray:none;stroke-opacity:1"
       d="m 148.09872,237.48321 c -9.45455,-1.54226 -17.29305,-8.90602 -19.23101,-18.06629 -0.50169,-2.37136 -0.53592,-18.62076 -0.0357,-16.95195 0.80689,2.69198 3.5176,5.17832 6.44588,5.91233 1.13983,0.28571 7.43425,0.38263 19.8134,0.30507 17.75796,-0.11125 18.17493,-0.13097 19.65476,-0.9295 1.71349,-0.92461 3.22125,-2.43242 4.09769,-4.09785 0.56275,-1.06934 0.59723,-0.72481 0.60531,6.04761 0.006,4.87553 -0.1681,8.01547 -0.54165,9.77859 -1.71291,8.08491 -8.13109,14.88209 -16.44621,17.41735 -2.44798,0.74638 -11.18953,1.10222 -14.36246,0.58464 z"
       id="path5318"
       inkscape:connector-curvature="0" />
    <path
       style="fill:#372cde;fill-opacity:1;stroke:none;stroke-width:0.32962283;stroke-miterlimit:4;stroke-dasharray:none;stroke-opacity:1"
       d="m 149.48229,164.40761 c -8.56736,-0.91763 -14.9986,-8.81968 -13.55492,-16.65486 0.73129,-3.96884 2.91035,-7.26891 6.23935,-9.44917 3.30215,-2.16268 4.68536,-2.60803 8.65937,-2.78806 5.07396,-0.22987 8.56934,0.91315 11.97391,3.91554 3.18382,2.80772 4.81155,6.36318 4.81155,10.50989 0,9.00395 -8.18104,15.53219 -18.12926,14.46666 z"
       id="path5320"
       inkscape:connector-curvature="0" />
    <rect
       style="fill:#7b77d3;fill-opacity:1;stroke:none;stroke-width:0.25892293;stroke-miterlimit:4;stroke-dasharray:none;stroke-opacity:1"
       id="rect4769-7"
       width="62.617008"
       height="81.767189"
       x="79.740921"
       y="170.4422"
       ry="28.317661" />
    <rect
       style="fill:#7b77d3;fill-opacity:1;stroke:none;stroke-width:0.25892293;stroke-miterlimit:4;stroke-dasharray:none;stroke-opacity:1"
       id="rect4771-0"
       width="62.230465"
       height="46.016205"
       x="80.127533"
       y="170.4422"
       ry="10.589622" />
    <ellipse
       style="fill:#7b77d3;fill-opacity:1;stroke:none;stroke-width:0.17289259;stroke-miterlimit:4;stroke-dasharray:none;stroke-opacity:1"
       id="path4773-1"
       cx="108.597"
       cy="145.81337"
       rx="18.453981"
       ry="16.899744" />
    <path
       style="fill:#7b77d3;fill-opacity:1;stroke:none;stroke-width:0.46041894;stroke-miterlimit:4;stroke-dasharray:none;stroke-opacity:1"
       d="M 103.96823,251.72142 C 92.45146,249.8429 82.903284,240.87266 80.542632,229.71461 c -0.611122,-2.88865 -0.652838,-22.68211 -0.04345,-20.64952 0.982878,3.27936 4.284848,6.30793 7.851811,7.2019 1.388461,0.34806 9.055782,0.46605 24.135097,0.37172 21.6314,-0.13576 22.13931,-0.15978 23.94191,-1.13246 2.08726,-1.12628 3.92389,-2.96304 4.99153,-4.99139 0.68546,-1.30283 0.72747,-0.88305 0.73732,7.36642 0.006,5.93892 -0.20479,9.76385 -0.65978,11.91139 -2.08655,9.84877 -9.90468,18.12816 -20.03351,21.2164 -2.98197,0.90935 -13.63024,1.34259 -17.49527,0.71235 z"
       id="path5318-3"
       inkscape:connector-curvature="0" />
    <rect
       style="fill:#4541c1;fill-opacity:1;stroke:none;stroke-width:0.23925968;stroke-miterlimit:4;stroke-dasharray:none;stroke-opacity:1"
       id="rect5376"
       width="67.853043"
       height="64.772766"
       x="36.616184"
       y="153.27312"
       ry="12.954516" />
    <path
       style="fill:#4541c1;fill-opacity:1;stroke:none;stroke-width:0.37797621;stroke-miterlimit:4;stroke-dasharray:none;stroke-opacity:1"
       d="m 146.05752,236.96336 c -0.93549,-0.27408 -2.60259,-0.8891 -3.70465,-1.3667 -1.52388,-0.66041 -1.94612,-1.01364 -1.76309,-1.47495 0.13236,-0.33362 0.58279,-1.88225 1.00095,-3.4414 0.63091,-2.35237 0.79497,-4.45825 0.96405,-12.37394 l 0.20375,-9.53912 13.27226,-0.10427 13.27226,-0.10426 -13.29645,-0.0895 -13.29646,-0.0895 -0.12518,-14.83557 c -0.11151,-13.21467 -0.19835,-14.99853 -0.79485,-16.32712 -1.00979,-2.24911 -2.44427,-3.94747 -4.36061,-5.16278 l -1.72534,-1.09417 h 18.41798 c 19.90653,0 19.63794,-0.0249 22.38581,2.07105 2.50696,1.91215 2.67693,2.83579 2.96071,16.08835 0.22311,10.41979 0.1797,12.10372 -0.34435,13.35796 -0.38073,0.91122 -0.43705,1.33467 -0.15426,1.1599 0.33852,-0.20922 0.40356,1.61913 0.27108,7.61971 -0.16181,7.32853 -0.24604,8.09777 -1.17396,10.72128 -2.3215,6.56358 -7.81763,12.07359 -14.34956,14.38583 -2.01554,0.71348 -3.32547,0.85155 -9.15563,0.96507 -4.86563,0.0947 -7.28806,-0.01 -8.50446,-0.36587 z m 28.34821,-28.96162 c 0.69093,-0.44651 0.0942,-0.44651 -0.94494,0 -0.49845,0.21419 -0.56283,0.33192 -0.18899,0.34562 0.31183,0.0114 0.8221,-0.1441 1.13393,-0.34562 z"
       id="path5378"
       inkscape:connector-curvature="0" />
    <path
       style="fill:#4541c1;fill-opacity:1;stroke:none;stroke-width:0.37797621;stroke-miterlimit:4;stroke-dasharray:none;stroke-opacity:1"
       d="m 149.10012,164.08342 c -4.93986,-0.55852 -9.821,-4.16784 -12.03999,-8.90285 -0.84466,-1.80238 -1.01741,-2.69167 -1.00977,-5.19817 0.008,-2.5948 0.17875,-3.38444 1.2041,-5.56561 1.42901,-3.03984 3.67,-5.32939 6.9645,-7.11542 2.40464,-1.30362 2.40739,-1.30409 7.5082,-1.30409 4.89115,0 5.19319,0.0458 7.28619,1.10574 5.96866,3.02254 9.13283,8.88302 8.15187,15.09839 -1.2525,7.93581 -8.8383,12.92524 -18.0651,11.88201 z"
       id="path5380"
       inkscape:connector-curvature="0" />
    <rect
       style="fill:#ffffff;fill-opacity:1;stroke:none;stroke-width:0.23315279;stroke-miterlimit:4;stroke-dasharray:none;stroke-opacity:1"
       id="rect5382"
       width="30.842289"
       height="7.1220293"
       x="54.671944"
       y="168.51627"
       ry="0" />
    <rect
       style="fill:#ffffff;fill-opacity:1;stroke:none;stroke-width:0.30553928;stroke-miterlimit:4;stroke-dasharray:none;stroke-opacity:1"
       id="rect5384"
       width="6.9596949"
       height="29.318199"
       x="66.450661"
       y="174.1264" />
    <flowRoot
       xml:space="preserve"
       id="flowRoot5410"
       style="font-style:normal;font-weight:normal;font-size:40px;line-height:1.25;font-family:sans-serif;letter-spacing:0px;word-spacing:0px;fill:#000000;fill-opacity:1;stroke:none"
       transform="matrix(0.26458333,0,0,0.26458333,8.6934524,88.645833)"><flowRegion
         id="flowRegion5412"><rect
           id="rect5414"
           width="281.42856"
           height="55.714287"
           x="534.28571"
           y="740.3374" /></flowRegion><flowPara
         id="flowPara5416">Marcel Bilski</flowPara></flowRoot>  </g>
</svg>
